<svg width="25" height="24" viewBox="0 0 25 24" fill="none" xmlns="http://www.w3.org/2000/svg">
<path d="M11.1358 7.37519V21.0129L6.50438 16.3816C6.42366 16.298 6.32711 16.2313 6.22036 16.1855C6.1136 16.1396 5.99879 16.1155 5.8826 16.1145C5.76642 16.1135 5.6512 16.1356 5.54367 16.1796C5.43613 16.2236 5.33844 16.2886 5.25628 16.3707C5.17413 16.4529 5.10915 16.5506 5.06516 16.6581C5.02116 16.7656 4.99902 16.8809 5.00003 16.997C5.00104 17.1132 5.02518 17.228 5.07104 17.3348C5.1169 17.4415 5.18356 17.5381 5.26713 17.6188L11.3921 23.7438C11.5562 23.9078 11.7787 24 12.0108 24C12.2428 24 12.4653 23.9078 12.6294 23.7438L18.7544 17.6188C18.9138 17.4538 19.002 17.2328 19 17.0033C18.998 16.7739 18.906 16.5545 18.7437 16.3922C18.5815 16.23 18.362 16.138 18.1326 16.136C17.9032 16.134 17.6822 16.2222 17.5171 16.3816L12.8858 21.0129V7.37519C12.8858 7.14312 12.7936 6.92056 12.6295 6.75647C12.4654 6.59237 12.2428 6.50019 12.0108 6.50019C11.7787 6.50019 11.5561 6.59237 11.392 6.75647C11.2279 6.92056 11.1358 7.14312 11.1358 7.37519Z" fill="white"/>
</svg>
