<svg width="12" height="12" viewBox="0 0 12 12" fill="none" xmlns="http://www.w3.org/2000/svg">
<path d="M1.68051 3.92308L1.68063 3.92298C1.76628 3.83931 1.88126 3.79247 2.001 3.79247C2.12072 3.79247 2.23569 3.8393 2.32134 3.92294L2.3213 3.92291L2.2515 3.99451L2.32137 3.92298L1.68051 3.92308ZM1.68051 3.92308C1.63858 3.96417 1.60527 4.01321 1.58253 4.06733C1.55979 4.12145 1.54808 4.17956 1.54808 4.23826C1.54808 4.29697 1.55979 4.35508 1.58253 4.4092C1.60527 4.46332 1.63858 4.51236 1.68051 4.55344L1.68069 4.55361M1.68051 3.92308L1.68069 4.55361M1.68069 4.55361L5.66844 8.44161L5.66845 8.44162M1.68069 4.55361L5.66845 8.44162M5.66845 8.44162C5.75715 8.52809 5.87613 8.57648 6 8.57648C6.12387 8.57648 6.24285 8.52809 6.33155 8.44162L6.2681 8.37652M5.66845 8.44162L6.2681 8.37652M6.2681 8.37652L6.33155 8.44162L10.3193 4.55441M6.2681 8.37652L10.2495 4.48276M9.6485 3.95165L9.67863 3.92223C9.76428 3.83856 9.87926 3.79172 9.999 3.79172C10.1187 3.79172 10.2337 3.83856 10.3194 3.92223M9.6485 3.95165L10.2495 3.99376M9.6485 3.95165V3.95234V3.95165ZM10.3194 3.92223L10.2495 3.99376M10.3194 3.92223C10.3193 3.92219 10.3193 3.92215 10.3193 3.92211L10.2495 3.99376M10.3194 3.92223C10.3615 3.96332 10.3951 4.01244 10.418 4.06669C10.4409 4.12099 10.4527 4.17933 10.4527 4.23826C10.4527 4.2972 10.4409 4.35554 10.418 4.40984C10.3951 4.46414 10.3615 4.5133 10.3193 4.55441M10.2495 3.99376C10.2822 4.02556 10.3081 4.06358 10.3258 4.10557C10.3436 4.14756 10.3527 4.19268 10.3527 4.23826C10.3527 4.28384 10.3436 4.32896 10.3258 4.37096C10.3081 4.41295 10.2822 4.45097 10.2495 4.48276M10.3193 4.55441L10.3193 4.55437L10.2495 4.48276M10.3193 4.55441L10.2495 4.48276M6 7.50886L5.9302 7.57691L6 7.64851L6.0698 7.57691L6 7.50886Z" fill="white" stroke="white" stroke-width="0.2"/>
</svg>
