<svg width="32" height="33" viewBox="0 0 32 33" fill="none" xmlns="http://www.w3.org/2000/svg">
<path fill-rule="evenodd" clip-rule="evenodd" d="M13 30H6.5C4.77611 29.9999 3.12286 29.3151 1.90389 28.0961C0.684919 26.8771 7.5415e-05 25.2239 0 23.5L0 10.5C7.5415e-05 8.77611 0.684919 7.12286 1.90389 5.90389C3.12286 4.68492 4.77611 4.00008 6.5 4L19.5 4C21.2239 4 22.8772 4.68482 24.0962 5.90381C25.3152 7.12279 26 8.77609 26 10.5V23.5C26 25.2239 25.3152 26.8772 24.0962 28.0962C22.8772 29.3152 21.2239 30 19.5 30H17.0625C17.0625 29.4613 16.8485 28.9446 16.4676 28.5637C16.0866 28.1827 15.57 27.9687 15.0312 27.9687C14.4925 27.9687 13.9759 28.1827 13.5949 28.5637C13.214 28.9446 13 29.4613 13 30Z" fill="#3764B9"/>
<path fill-rule="evenodd" clip-rule="evenodd" d="M12.1875 11.3125H19.5C20.4373 11.3124 21.3388 10.9524 22.0184 10.3068C22.6979 9.66116 23.1035 8.77923 23.1515 7.84313C23.1994 6.90703 22.8861 5.98825 22.2761 5.27654C21.6662 4.56484 20.8062 4.11456 19.8737 4.01869C19.7494 4.01178 19.6263 4 19.5 4H6.5C4.77611 4.00008 3.12286 4.68492 1.90389 5.90389C0.684919 7.12286 7.5415e-05 8.77612 0 10.5L0 23.5C7.54177e-05 20.2677 1.28414 17.1678 3.56972 14.8822C5.8553 12.5966 8.9552 11.3126 12.1875 11.3125Z" fill="#507DD2"/>
<path fill-rule="evenodd" clip-rule="evenodd" d="M19.5 17C18.2144 17 16.9577 17.3812 15.8888 18.0954C14.8199 18.8097 13.9868 19.8248 13.4948 21.0126C13.0028 22.2003 12.8741 23.5072 13.1249 24.7681C13.3757 26.029 13.9948 27.1872 14.9038 28.0962C15.8129 29.0052 16.971 29.6243 18.2319 29.8751C19.4928 30.1259 20.7997 29.9972 21.9874 29.5052C23.1752 29.0132 24.1903 28.1801 24.9046 27.1112C25.6188 26.0423 26 24.7856 26 23.5V10.5C26 12.2239 25.3152 13.8772 24.0962 15.0962C22.8772 16.3152 21.2239 17 19.5 17Z" fill="#1E4BA0"/>
<path fill-rule="evenodd" clip-rule="evenodd" d="M21.125 11.3125C21.125 11.528 21.0394 11.7347 20.887 11.887C20.7346 12.0394 20.528 12.125 20.3125 12.125H17.875C17.6595 12.125 17.4528 12.2106 17.3005 12.363C17.1481 12.5153 17.0625 12.722 17.0625 12.9375V16.1875H20.1337C20.254 16.1875 20.3727 16.2142 20.4813 16.2656C20.59 16.317 20.6858 16.3919 20.7621 16.4848C20.8383 16.5778 20.8929 16.6865 20.922 16.8031C20.9512 16.9197 20.954 17.0414 20.9305 17.1592C20.7796 17.9137 20.5747 18.9382 20.443 19.5967C20.4062 19.781 20.3067 19.9467 20.1614 20.0658C20.0161 20.1849 19.8341 20.25 19.6462 20.25H17.0625V30H13V20.25H10.5625C10.347 20.25 10.1403 20.1644 9.98798 20.012C9.8356 19.8597 9.75 19.653 9.75 19.4375V17C9.75 16.7845 9.8356 16.5778 9.98798 16.4255C10.1403 16.2731 10.347 16.1875 10.5625 16.1875H13V12.9375C13 11.6446 13.5136 10.4046 14.4279 9.49035C15.3421 8.57611 16.5821 8.0625 17.875 8.0625H20.3125C20.528 8.0625 20.7346 8.1481 20.887 8.30048C21.0394 8.45285 21.125 8.65951 21.125 8.875V11.3125Z" fill="white"/>
</svg>
