<svg width="36" height="37" viewBox="0 0 36 37" fill="none" xmlns="http://www.w3.org/2000/svg">
<path d="M24.8894 14.7385L17.9993 21.4549L11.1092 14.7385C10.9861 14.6183 10.8208 14.5509 10.6487 14.5509C10.4766 14.5509 10.3114 14.6183 10.1883 14.7385C10.1287 14.7969 10.0813 14.8666 10.049 14.9435C10.0167 15.0205 10 15.1031 10 15.1865C10 15.27 10.0167 15.3526 10.049 15.4295C10.0813 15.5065 10.1287 15.5762 10.1883 15.6346L17.5182 22.7811C17.6469 22.9066 17.8195 22.9768 17.9993 22.9768C18.1791 22.9768 18.3517 22.9066 18.4804 22.7811L25.8103 15.636C25.8704 15.5775 25.9181 15.5076 25.9506 15.4304C25.9832 15.3533 26 15.2703 26 15.1865C26 15.1028 25.9832 15.0198 25.9506 14.9426C25.9181 14.8654 25.8704 14.7956 25.8103 14.7371C25.6872 14.6169 25.522 14.5496 25.3499 14.5496C25.1778 14.5496 25.0125 14.6169 24.8894 14.7371V14.7385Z" fill="#7B7B7B" stroke="#7B7B7B"/>
</svg>
