<svg width="36" height="37" viewBox="0 0 36 37" fill="none" xmlns="http://www.w3.org/2000/svg">
<path d="M24.8894 22.7879L17.9993 16.0715L11.1092 22.7879C10.9861 22.9082 10.8208 22.9755 10.6487 22.9755C10.4766 22.9755 10.3114 22.9082 10.1883 22.7879C10.1287 22.7295 10.0813 22.6598 10.049 22.5829C10.0167 22.506 10 22.4233 10 22.3399C10 22.2564 10.0167 22.1738 10.049 22.0969C10.0813 22.02 10.1287 21.9503 10.1883 21.8919L17.5182 14.7453C17.6469 14.6198 17.8195 14.5496 17.9993 14.5496C18.1791 14.5496 18.3517 14.6198 18.4804 14.7453L25.8103 21.8905C25.8704 21.9489 25.9181 22.0188 25.9506 22.096C25.9832 22.1732 26 22.2561 26 22.3399C26 22.4237 25.9832 22.5066 25.9506 22.5838C25.9181 22.661 25.8704 22.7309 25.8103 22.7893C25.6872 22.9096 25.522 22.9769 25.3499 22.9769C25.1778 22.9769 25.0125 22.9096 24.8894 22.7893V22.7879Z" fill="#7B7B7B" stroke="#7B7B7B"/>
</svg>
