<svg width="32" height="33" viewBox="0 0 32 33" fill="none" xmlns="http://www.w3.org/2000/svg">
<g clip-path="url(#clip0_650_1192)">
<path d="M22.8001 27.0137V31.3337H20.8V27.0137C20.8 26.4537 21.2534 26.0137 21.8 26.0137C22.3467 26.0137 22.8001 26.4537 22.8001 27.0137Z" fill="#FFCC80"/>
<path d="M21.8001 27.6668C20.3294 27.6668 19.1334 26.4708 19.1334 25.0002C19.1334 23.5295 20.3294 22.3335 21.8001 22.3335C23.2708 22.3335 24.4668 23.5295 24.4668 25.0002C24.4668 26.4708 23.2708 27.6668 21.8001 27.6668Z" fill="#4CAF68"/>
<path d="M9.80001 6.00001C9.06401 6.00001 8.46667 5.40267 8.46667 4.66667V2.33333C8.46667 1.59733 9.06401 1 9.80001 1C10.536 1 11.1333 1.59733 11.1333 2.33333V4.66667C11.1333 5.40267 10.536 6.00001 9.80001 6.00001Z" fill="url(#paint0_linear_650_1192)"/>
<path d="M14.1334 10.3332H5.46668C4.91468 10.3332 4.46667 9.88518 4.46667 9.33318V5.99984C4.46667 4.71317 5.51334 3.6665 6.80001 3.6665H12.8C14.0867 3.6665 15.1334 4.71317 15.1334 5.99984V9.33318C15.1334 9.88518 14.6854 10.3332 14.1334 10.3332Z" fill="#ACCCDD"/>
<path d="M15.4666 7.6665H4.13326C2.85326 7.6665 1.79993 8.71984 1.79993 9.99984V31.3332H17.7999V9.99984C17.7999 8.71984 16.7466 7.6665 15.4666 7.6665Z" fill="url(#paint1_linear_650_1192)"/>
<mask id="mask0_650_1192" style="mask-type:alpha" maskUnits="userSpaceOnUse" x="1" y="7" width="17" height="25">
<path d="M15.4666 7.6665H4.13326C2.85326 7.6665 1.79993 8.71984 1.79993 9.99984V31.3332H17.7999V9.99984C17.7999 8.71984 16.7466 7.6665 15.4666 7.6665Z" fill="url(#paint2_linear_650_1192)"/>
</mask>
<g mask="url(#mask0_650_1192)">
<path opacity="0.2" fill-rule="evenodd" clip-rule="evenodd" d="M1.79994 18.1288L1.79994 10.3999C1.79994 10.366 1.80051 10.3321 1.80163 10.2985C1.8005 10.2658 1.79993 10.2329 1.79993 10.2C1.79993 8.65357 3.05353 7.39997 4.59993 7.39997H4.77987L4.79994 7.3999H6.79995L6.82003 7.39997H14.9999C16.5463 7.39997 17.7999 8.65357 17.7999 10.2C17.7999 11.7464 16.5463 13 14.9999 13H9.84162C9.82776 12.9999 9.81389 12.9999 9.80001 12.9999C6.25019 12.9999 3.1913 15.1017 1.79994 18.1288Z" fill="white"/>
<path opacity="0.2" fill-rule="evenodd" clip-rule="evenodd" d="M13 21.8001L12.9555 21.8224C10.7342 22.0452 9 23.9202 9 26.2002C9 28.4949 10.7565 30.3793 12.9983 30.5821L13.0001 30.6001H13.3687L13.4 30.6002L13.4313 30.6001H17.8001V19.4062C17.7968 20.7289 16.7235 21.8001 15.4001 21.8001H13Z" fill="#16223B"/>
</g>
<path d="M32.1913 9.39553C32.1913 5.98761 29.348 3.24377 25.9042 3.40681C22.8877 3.54969 20.3955 6.00513 20.2116 9.01953C20.0744 11.2674 21.1767 13.2686 22.8999 14.4047C24.0398 15.1562 25.0023 16.1467 25.685 17.3291L25.8443 17.605C25.9944 17.865 26.3695 17.865 26.5195 17.605L26.6633 17.3559C27.3324 16.197 28.2475 15.1864 29.3808 14.4746C31.0689 13.4143 32.1913 11.5364 32.1913 9.39553Z" fill="url(#paint3_linear_650_1192)"/>
<path d="M26.1961 12.6358C27.9855 12.6358 29.436 11.1852 29.436 9.39576C29.436 7.60636 27.9855 6.15576 26.1961 6.15576C24.4067 6.15576 22.9561 7.60636 22.9561 9.39576C22.9561 11.1852 24.4067 12.6358 26.1961 12.6358Z" fill="url(#paint4_linear_650_1192)"/>
<path d="M26.1961 11.755C27.4991 11.755 28.5553 10.6988 28.5553 9.39582C28.5553 8.09287 27.4991 7.03662 26.1961 7.03662C24.8932 7.03662 23.8369 8.09287 23.8369 9.39582C23.8369 10.6988 24.8932 11.755 26.1961 11.755Z" fill="url(#paint5_linear_650_1192)"/>
<path d="M12.4665 31.6665H7.13318V24.6665C7.13318 24.1145 7.58118 23.6665 8.13318 23.6665H11.4665C12.0185 23.6665 12.4665 24.1145 12.4665 24.6665V31.6665Z" fill="#E2F4FE"/>
<path d="M11.1332 19.6667H8.46651C7.73318 19.6667 7.13318 19.0667 7.13318 18.3333C7.13318 17.6 7.73318 17 8.46651 17H11.1332C11.8665 17 12.4665 17.6 12.4665 18.3333C12.4665 19.0667 11.8665 19.6667 11.1332 19.6667Z" fill="#E2F4FE"/>
<path d="M11.1332 14.3332H8.46651C7.73318 14.3332 7.13318 13.7332 7.13318 12.9998C7.13318 12.2665 7.73318 11.6665 8.46651 11.6665H11.1332C11.8665 11.6665 12.4665 12.2665 12.4665 12.9998C12.4665 13.7332 11.8665 14.3332 11.1332 14.3332Z" fill="#E2F4FE"/>
<path d="M25.2527 33.0002H2.34737C1.60362 33.0002 1 32.4028 1 31.6668C1 30.9308 1.60362 30.3335 2.34737 30.3335H25.2527C25.9964 30.3335 26.6 30.9308 26.6 31.6668C26.6 32.4028 25.9964 33.0002 25.2527 33.0002Z" fill="#ACCCDD"/>
</g>
<defs>
<linearGradient id="paint0_linear_650_1192" x1="8.46667" y1="1" x2="12.6189" y2="3.21454" gradientUnits="userSpaceOnUse">
<stop stop-color="#04BAEE"/>
<stop offset="1" stop-color="#0080BD"/>
</linearGradient>
<linearGradient id="paint1_linear_650_1192" x1="7.79993" y1="8.59981" x2="20.3031" y2="28.7791" gradientUnits="userSpaceOnUse">
<stop stop-color="#04BAEE"/>
<stop offset="1" stop-color="#0080BD"/>
</linearGradient>
<linearGradient id="paint2_linear_650_1192" x1="7.79993" y1="8.59981" x2="20.3031" y2="28.7791" gradientUnits="userSpaceOnUse">
<stop stop-color="#04BAEE"/>
<stop offset="1" stop-color="#0080BD"/>
</linearGradient>
<linearGradient id="paint3_linear_650_1192" x1="25.1657" y1="3.79113" x2="27.6065" y2="17.0727" gradientUnits="userSpaceOnUse">
<stop stop-color="#FF6B69"/>
<stop offset="1" stop-color="#FF1036"/>
</linearGradient>
<linearGradient id="paint4_linear_650_1192" x1="28.4856" y1="11.5742" x2="24.0769" y2="7.37896" gradientUnits="userSpaceOnUse">
<stop stop-color="#FF6B69"/>
<stop offset="1" stop-color="#FF1036"/>
</linearGradient>
<linearGradient id="paint5_linear_650_1192" x1="23.8369" y1="9.39582" x2="28.5545" y2="9.39582" gradientUnits="userSpaceOnUse">
<stop stop-color="#EEF4FF"/>
<stop offset="1" stop-color="#DEF6FC"/>
</linearGradient>
<clipPath id="clip0_650_1192">
<rect width="32" height="32" fill="white" transform="translate(0 0.535156)"/>
</clipPath>
</defs>
</svg>
