<svg width="40" height="40" viewBox="0 0 40 40" fill="none" xmlns="http://www.w3.org/2000/svg">
<path d="M6.97488 22.3029L6.6355 22.085C6.62644 22.1176 6.61785 22.1501 6.60581 22.1826L6.55425 22.3228C6.46003 22.5784 6.28863 22.7825 6.07675 22.9209L6.61956 23.2695L6.97488 22.3029Z" fill="#A62A2E"/>
<path d="M4.98847 23.046L3.78378 22.6024C3.25862 22.4091 2.93237 21.883 2.99268 21.3266L3.02768 21.0028C3.07128 20.6003 3.43331 20.3097 3.83565 20.3542L5.5955 20.5489C6.38284 20.6361 6.87956 21.4391 6.60581 22.1825L6.55425 22.3227C6.32175 22.955 5.62065 23.2788 4.98847 23.046Z" fill="#CF3338"/>
<path d="M33.3803 23.2695L33.9231 22.9209C33.7113 22.7826 33.5399 22.5786 33.4456 22.3228L33.3941 22.1826C33.3822 22.1501 33.3735 22.1175 33.3644 22.085L33.025 22.3029L33.3803 23.2695Z" fill="#A62A2E"/>
<path d="M35.0116 23.046L36.2163 22.6024C36.7414 22.4091 37.0677 21.883 37.0074 21.3266L36.9724 21.0028C36.9288 20.6003 36.5667 20.3097 36.1644 20.3542L34.4046 20.5489C33.6172 20.6361 33.1205 21.4391 33.3942 22.1825L33.4458 22.3227C33.6783 22.955 34.3794 23.2788 35.0116 23.046Z" fill="#CF3338"/>
<path d="M7.2283 36.7052C6.36033 36.7052 5.58111 36.3337 5.03439 35.7435V38.3692C5.03439 38.9771 5.52721 39.4699 6.13517 39.4699H9.43752C10.0455 39.4699 10.5383 38.9771 10.5383 38.3692V36.7052H7.2283Z" fill="#414042"/>
<path d="M32.7719 36.705H29.4617V38.3692C29.4617 38.9772 29.9545 39.47 30.5625 39.47H33.8649C34.4728 39.47 34.9656 38.9772 34.9656 38.3692V35.7433C34.4189 36.3333 33.6397 36.705 32.7719 36.705Z" fill="#414042"/>
<path d="M7.2283 36.7054L32.7717 36.705C34.4249 36.705 35.765 35.3649 35.765 33.7116V28.2733C35.765 27.4944 35.5371 26.7325 35.1092 26.0815L33.5305 23.679H6.46939L4.89064 26.0815C4.46283 26.7324 4.23502 27.4943 4.23486 28.2733V33.7119C4.23486 35.365 5.57502 36.7054 7.2283 36.7054Z" fill="#CF3338"/>
<path d="M35.7652 28.2733C35.7652 27.4944 35.5372 26.7325 35.1096 26.0815L33.5308 23.679H33.1886L34.1117 25.0836C34.5396 25.7346 34.7675 26.4965 34.7675 27.2755V32.7138C34.7675 34.3669 33.4274 35.7072 31.7742 35.7072L6.23065 35.7075C5.66003 35.7075 5.12862 35.545 4.67471 35.2679C5.20049 36.1288 6.14596 36.7054 7.22846 36.7054L32.7721 36.705C34.4252 36.705 35.7653 35.3649 35.7653 33.7116L35.7652 28.2733Z" fill="#A62A2E"/>
<path d="M24.3864 32.3302H15.6136C15.1605 32.3302 14.7644 32.0249 14.6488 31.5868L14.1772 29.7983C14.0104 29.1655 14.4875 28.5461 15.1421 28.5461H24.8582C25.5125 28.5461 25.9899 29.1655 25.823 29.7983L25.3514 31.5868C25.2358 32.0249 24.8396 32.3302 24.3864 32.3302Z" fill="#414042"/>
<path d="M33.191 24.8512L32.6472 23.8825C32.5766 23.7567 32.4435 23.6787 32.2992 23.6787H7.7008C7.55642 23.6787 7.42346 23.7567 7.35283 23.8825L6.80908 24.8512C6.50658 25.3901 6.76158 26.0715 7.34361 26.2793L11.4927 27.7612C11.7081 27.8381 11.9352 27.8775 12.1639 27.8775H27.8364C28.0652 27.8775 28.2922 27.8381 28.5077 27.7612L32.6567 26.2793C33.2385 26.0715 33.4935 25.3901 33.191 24.8512Z" fill="#A62A2E"/>
<path d="M28.1191 29.3804C28.9056 28.6039 30.7011 27.3634 34.1802 27.3023C34.3483 27.2993 34.5011 27.405 34.5602 27.5625C34.7783 28.1451 35.1316 29.5245 33.7749 29.9014C32.4889 30.2586 29.7195 30.139 28.3738 30.0534C28.0341 30.0317 27.8769 29.6197 28.1191 29.3804Z" fill="white"/>
<path d="M34.5602 27.5625C34.5011 27.405 34.3485 27.2993 34.1802 27.3023C34.0647 27.3043 33.9561 27.3109 33.8444 27.3156C33.9505 27.9539 33.8594 28.7409 32.8849 29.0115C31.823 29.3065 29.7513 29.2762 28.3033 29.2086C28.2372 29.2676 28.1749 29.3254 28.1192 29.3804C27.8771 29.6195 28.0341 30.0317 28.3738 30.0534C29.7196 30.139 32.4889 30.2587 33.7749 29.9014C35.1316 29.5245 34.7783 28.1451 34.5602 27.5625Z" fill="#F1F2F2"/>
<path d="M11.881 29.3804C11.0944 28.6039 9.29909 27.3634 5.81987 27.3023C5.65174 27.2993 5.49893 27.405 5.43987 27.5625C5.22174 28.1451 4.86846 29.5245 6.22518 29.9014C7.51112 30.2586 10.2805 30.139 11.6263 30.0534C11.966 30.0317 12.1231 29.6197 11.881 29.3804Z" fill="white"/>
<path d="M11.881 29.3804C11.6869 29.1889 11.4308 28.9689 11.1038 28.7456C11.1147 28.9473 10.9711 29.1486 10.7366 29.1634C9.39081 29.249 6.62144 29.3687 5.3355 29.0114C5.31347 29.0053 5.29581 28.9969 5.27472 28.9901C5.37003 29.3847 5.63613 29.7376 6.2255 29.9012C7.51144 30.2584 10.2808 30.1389 11.6266 30.0533C11.966 30.0317 12.1232 29.6197 11.881 29.3804Z" fill="#F1F2F2"/>
<path d="M27.4549 14.5625H12.5452C10.9074 14.5625 9.44345 15.5842 8.87861 17.1216L6.46939 23.6789H33.5306L31.1214 17.1216C30.5566 15.5842 29.0927 14.5625 27.4549 14.5625Z" fill="#CF3338"/>
<path d="M7.95941 22.0769L9.79816 17.1572C10.0264 16.5466 10.6099 16.1417 11.2618 16.1417H28.7385C29.3904 16.1417 29.9738 16.5466 30.2021 17.1572L32.0408 22.0767C32.1172 22.2809 31.9661 22.4986 31.7482 22.4986H8.25207C8.0341 22.4988 7.88301 22.2811 7.95941 22.0769Z" fill="#F1F2F2"/>
<path d="M16.9922 17.3917H16.836C16.6635 17.3917 16.5235 17.2517 16.5235 17.0792C16.5235 16.9067 16.6635 16.7667 16.836 16.7667H16.9922C17.1647 16.7667 17.3047 16.9067 17.3047 17.0792C17.3047 17.2517 17.1647 17.3917 16.9922 17.3917ZM15.586 17.3917H11.0547C10.8822 17.3917 10.7422 17.2517 10.7422 17.0792C10.7422 16.9067 10.8822 16.7667 11.0547 16.7667H15.586C15.7585 16.7667 15.8985 16.9067 15.8985 17.0792C15.8985 17.2517 15.7585 17.3917 15.586 17.3917Z" fill="white"/>
<path d="M32.0407 22.0769L30.2019 17.1574C29.9863 16.5804 29.4535 16.1877 28.8454 16.146L30.478 20.5144C30.5544 20.7187 30.4033 20.9363 30.1854 20.9363H8.38566L7.95941 22.0769C7.88301 22.2812 8.0341 22.4988 8.25207 22.4988H31.748C31.966 22.4988 32.1171 22.2812 32.0407 22.0769Z" fill="#E6E7E8"/>
<path d="M32.0406 22.0769L30.2019 17.1573C30.053 16.7591 29.7525 16.4492 29.3809 16.2812C29.395 16.3123 29.4086 16.3438 29.4206 16.3761L31.2594 21.2956C31.3358 21.4998 31.1847 21.7175 30.9667 21.7175H8.09361L7.95923 22.0769C7.88283 22.2811 8.03392 22.4987 8.25189 22.4987H31.7478C31.966 22.4987 32.117 22.2811 32.0406 22.0769Z" fill="#D1D3D4"/>
<path d="M29.7088 35.1074H10.2913C9.95361 35.1074 9.76861 34.7143 9.98361 34.4542L10.5414 33.7788C10.731 33.5495 11.013 33.4165 11.3106 33.4165H28.6894C28.9871 33.4165 29.2691 33.5493 29.4586 33.7788L30.0164 34.4542C30.2314 34.7143 30.0464 35.1074 29.7088 35.1074Z" fill="#414042"/>
<path d="M32.2541 35.4189C32.893 35.4189 33.4109 34.9009 33.4109 34.262C33.4109 33.6231 32.893 33.1051 32.2541 33.1051C31.6151 33.1051 31.0972 33.6231 31.0972 34.262C31.0972 34.9009 31.6151 35.4189 32.2541 35.4189Z" fill="#D1D3D4"/>
<path d="M32.2541 34.9662C32.643 34.9662 32.9583 34.6509 32.9583 34.262C32.9583 33.873 32.643 33.5577 32.2541 33.5577C31.8652 33.5577 31.5499 33.873 31.5499 34.262C31.5499 34.6509 31.8652 34.9662 32.2541 34.9662Z" fill="white"/>
<path d="M7.74596 35.4189C8.38488 35.4189 8.90283 34.9009 8.90283 34.262C8.90283 33.6231 8.38488 33.1051 7.74596 33.1051C7.10703 33.1051 6.58908 33.6231 6.58908 34.262C6.58908 34.9009 7.10703 35.4189 7.74596 35.4189Z" fill="#D1D3D4"/>
<path d="M7.74597 34.9662C8.1349 34.9662 8.45019 34.6509 8.45019 34.262C8.45019 33.873 8.1349 33.5577 7.74597 33.5577C7.35704 33.5577 7.04175 33.873 7.04175 34.262C7.04175 34.6509 7.35704 34.9662 7.74597 34.9662Z" fill="white"/>
<path d="M5.50355 7.99685L5.6734 8.78779C5.85183 9.61888 6.50105 10.2679 7.33199 10.4464L8.12293 10.6162C8.31355 10.6572 8.31355 10.9294 8.12293 10.9703L7.33199 11.1401C6.5009 11.3186 5.85183 11.9678 5.6734 12.7987L5.50355 13.5897C5.46261 13.7803 5.19043 13.7803 5.14949 13.5897L4.97965 12.7987C4.80121 11.9676 4.15199 11.3186 3.32105 11.1401L2.53011 10.9703C2.33949 10.9294 2.33949 10.6572 2.53011 10.6162L3.32105 10.4464C4.15215 10.2679 4.80121 9.61873 4.97965 8.78779L5.14949 7.99685C5.19043 7.80623 5.46261 7.80623 5.50355 7.99685Z" fill="#FFD41F"/>
<path d="M8.91273 1.76057L9.03945 2.35088C9.17258 2.97104 9.65711 3.45541 10.2773 3.58869L10.8676 3.71541C11.0099 3.74604 11.0099 3.949 10.8676 3.97963L10.2773 4.10635C9.65711 4.23947 9.17273 4.724 9.03945 5.34416L8.91273 5.93447C8.88211 6.07682 8.67914 6.07682 8.64852 5.93447L8.5218 5.34416C8.38867 4.724 7.90414 4.23963 7.28398 4.10635L6.69367 3.97963C6.55133 3.949 6.55133 3.74604 6.69367 3.71541L7.28398 3.58869C7.90414 3.45557 8.38852 2.97104 8.5218 2.35088L8.64852 1.76057C8.67914 1.61822 8.88227 1.61822 8.91273 1.76057Z" fill="#FFD41F"/>
<path d="M32.3155 4.18732L32.4422 4.77764C32.5753 5.39779 33.0599 5.88217 33.68 6.01545L34.2703 6.14217C34.4127 6.17279 34.4127 6.37576 34.2703 6.40639L33.68 6.53311C33.0599 6.66623 32.5755 7.15076 32.4422 7.77092L32.3155 8.36123C32.2849 8.50357 32.0819 8.50357 32.0513 8.36123L31.9246 7.77092C31.7914 7.15076 31.3069 6.66639 30.6868 6.53311L30.0964 6.40639C29.9541 6.37576 29.9541 6.17279 30.0964 6.14217L30.6868 6.01545C31.3069 5.88232 31.7913 5.39779 31.9246 4.77764L32.0513 4.18732C32.0819 4.04498 32.2849 4.04498 32.3155 4.18732Z" fill="#FFD41F"/>
<path d="M34.3518 11.5338L34.418 11.8421C34.4876 12.166 34.7407 12.4191 35.0646 12.4887L35.3729 12.5549C35.4472 12.5708 35.4472 12.6769 35.3729 12.6929L35.0646 12.7591C34.7407 12.8287 34.4876 13.0818 34.418 13.4057L34.3518 13.714C34.3358 13.7883 34.2297 13.7883 34.2138 13.714L34.1476 13.4057C34.078 13.0818 33.8249 12.8287 33.501 12.7591L33.1927 12.6929C33.1183 12.6769 33.1183 12.5708 33.1927 12.5549L33.501 12.4887C33.8249 12.4191 34.078 12.166 34.1476 11.8421L34.2138 11.5338C34.2297 11.4594 34.3358 11.4594 34.3518 11.5338Z" fill="#FFD41F"/>
<path d="M20.342 5.6599L20.4326 6.08193C20.5278 6.52537 20.8744 6.87178 21.3178 6.96709L21.7398 7.05772C21.8416 7.07959 21.8416 7.22475 21.7398 7.24662L21.3178 7.33725C20.8744 7.4324 20.528 7.77896 20.4326 8.2224L20.342 8.64443C20.3201 8.74615 20.175 8.74615 20.1531 8.64443L20.0625 8.2224C19.9673 7.77896 19.6208 7.43256 19.1773 7.33725L18.7553 7.24662C18.6536 7.22475 18.6536 7.07959 18.7553 7.05772L19.1773 6.96709C19.6208 6.87193 19.9672 6.52537 20.0625 6.08193L20.1531 5.6599C20.175 5.55803 20.3201 5.55803 20.342 5.6599Z" fill="#FFD41F"/>
<circle cx="20" cy="11" r="10" fill="#E9C21D"/>
<circle cx="19.4444" cy="10.4444" r="9.44444" fill="#FFD41F"/>
<circle cx="19.4444" cy="10.4444" r="9.44444" fill="#FFD41F"/>
<path d="M18.6252 13.6812L16.5742 13.6776L17.4564 12.1496L17.9291 12.4224C17.9786 12.451 18.0356 12.4636 18.0925 12.4586C18.1493 12.4535 18.2033 12.4311 18.2469 12.3943C18.2906 12.3576 18.3219 12.3083 18.3365 12.2531C18.3511 12.1979 18.3484 12.1396 18.3287 12.086L17.5888 10.0742C17.5663 10.0132 17.5233 9.96203 17.467 9.92954C17.4107 9.89705 17.3448 9.88532 17.2808 9.8964L15.1686 10.2615C15.1124 10.2712 15.0605 10.298 15.02 10.3382C14.9796 10.3785 14.9525 10.4302 14.9425 10.4864C14.9325 10.5426 14.94 10.6005 14.9641 10.6523C14.9881 10.7041 15.0275 10.7471 15.077 10.7757L15.5492 11.0485L14.4271 12.9923C14.2583 13.2846 14.1694 13.6162 14.1693 13.9537C14.1691 14.2912 14.2578 14.6229 14.4263 14.9153C14.5948 15.2078 14.8373 15.4508 15.1294 15.6199C15.4215 15.7891 15.7529 15.8784 16.0905 15.879L18.6234 15.8834H18.6244C18.7717 15.8834 18.9129 15.8248 19.0171 15.7206C19.1212 15.6165 19.1797 15.4752 19.1797 15.328V14.2368C19.1795 14.0897 19.1211 13.9487 19.0172 13.8446C18.9132 13.7405 18.7723 13.6817 18.6252 13.6812Z" fill="#2ECC71"/>
<path d="M25.5711 13.0028L24.3034 10.8155C24.2294 10.6883 24.1081 10.5956 23.9659 10.5577C23.8238 10.5197 23.6724 10.5396 23.5449 10.6129L22.6 11.1585C22.5368 11.1951 22.4813 11.2437 22.4369 11.3017C22.3925 11.3596 22.3599 11.4258 22.341 11.4963C22.3222 11.5669 22.3175 11.6405 22.3271 11.7129C22.3367 11.7853 22.3605 11.855 22.3971 11.9182L23.4236 13.6893L21.6499 13.6862V13.1446C21.6499 13.0875 21.6323 13.0318 21.5996 12.985C21.5668 12.9383 21.5204 12.9028 21.4667 12.8834C21.413 12.8639 21.3547 12.8615 21.2996 12.8764C21.2445 12.8913 21.1953 12.9229 21.1587 12.9667L19.7865 14.6134C19.7449 14.6634 19.7221 14.7263 19.7221 14.7913C19.7221 14.8562 19.7449 14.9192 19.7865 14.9691L21.1587 16.6158C21.1953 16.6596 21.2445 16.6912 21.2996 16.7061C21.3547 16.721 21.413 16.7185 21.4667 16.6991C21.5204 16.6797 21.5667 16.6442 21.5995 16.5975C21.6323 16.5507 21.6499 16.495 21.6499 16.438V15.8885L23.9029 15.8924H23.9067C24.2448 15.8944 24.5773 15.8064 24.8702 15.6373C25.163 15.4682 25.4054 15.2242 25.5727 14.9303C25.7437 14.6379 25.8336 14.3051 25.8334 13.9663C25.8331 13.6276 25.7426 13.295 25.5711 13.0028L25.5711 13.0028Z" fill="#2ECC71"/>
<path d="M17.2655 9.1872L18.2106 9.73262C18.3383 9.80606 18.4898 9.82589 18.6321 9.78776C18.7743 9.74963 18.8956 9.65665 18.9694 9.5292L19.9888 7.76358L20.8792 9.30004L20.4151 9.56777C20.3657 9.59632 20.3262 9.6394 20.3022 9.69115C20.2781 9.74291 20.2705 9.80082 20.2805 9.85702C20.2905 9.91321 20.3176 9.96496 20.3581 10.0052C20.3985 10.0455 20.4504 10.0723 20.5067 10.082L22.6189 10.4471C22.6829 10.4582 22.7488 10.4465 22.8051 10.414C22.8614 10.3815 22.9045 10.3302 22.9269 10.2692L23.6667 8.25759C23.6864 8.20401 23.6891 8.14566 23.6745 8.09048C23.6599 8.03529 23.6286 7.98596 23.5849 7.94919C23.5412 7.91242 23.4873 7.89 23.4304 7.88499C23.3735 7.87997 23.3165 7.8926 23.2671 7.92116L22.7865 8.19879L21.6533 6.24394C21.4856 5.95074 21.243 5.70738 20.9503 5.53877C20.6576 5.37015 20.3254 5.28235 19.9876 5.28433H19.9867C19.6488 5.28265 19.3165 5.37088 19.0239 5.53997C18.7313 5.70906 18.489 5.95293 18.3217 6.24657L17.062 8.42827C17.0256 8.49146 17.0019 8.56122 16.9924 8.63356C16.9829 8.7059 16.9877 8.77941 17.0066 8.84989C17.0255 8.92036 17.0581 8.98643 17.1025 9.04431C17.1469 9.10219 17.2023 9.15075 17.2655 9.18723L17.2655 9.1872Z" fill="#2ECC71"/>
<path opacity="0.25" d="M18.6253 13.6811L16.5742 13.6775L15.9249 14.8021C15.6396 15.2963 15.5239 15.8637 16.4398 15.8795L18.6233 15.8833H18.6243C18.7716 15.8833 18.9129 15.8247 19.017 15.7206C19.1212 15.6164 19.1797 15.4751 19.1797 15.3279V14.2367C19.1795 14.0896 19.1211 13.9486 19.0172 13.8445C18.9133 13.7404 18.7723 13.6816 18.6253 13.6811Z" fill="#105E30"/>
<path opacity="0.25" d="M25.3763 12.6667L24.3034 10.8155C24.2294 10.6883 24.1081 10.5956 23.9659 10.5577C23.8238 10.5197 23.6724 10.5396 23.5449 10.6129L22.6 11.1585C22.5368 11.1951 22.4813 11.2437 22.4369 11.3017C22.3925 11.3596 22.3599 11.4258 22.341 11.4963C22.3222 11.5669 22.3175 11.6405 22.3271 11.7129C22.3367 11.7853 22.3605 11.855 22.3971 11.9182L23.4236 13.6893H24.7223C25.3018 13.6893 25.8594 13.5 25.3763 12.6667Z" fill="#105E30"/>
<path opacity="0.25" d="M18.1365 6.56735L17.062 8.42821C17.0256 8.49141 17.0019 8.56116 16.9924 8.63351C16.9829 8.70585 16.9877 8.77936 17.0066 8.84983C17.0255 8.92031 17.0581 8.98637 17.1025 9.04425C17.1469 9.10213 17.2023 9.1507 17.2655 9.18717L18.2107 9.73259C18.3383 9.80603 18.4899 9.82586 18.6321 9.78773C18.7743 9.7496 18.8957 9.65662 18.9694 9.52918L19.9888 7.76355L19.3395 6.63889C19.0516 6.1403 18.613 5.75425 18.1365 6.56735Z" fill="#105E30"/>
</svg>
