<svg width="40" height="40" viewBox="0 0 40 40" fill="none" xmlns="http://www.w3.org/2000/svg">
<g clip-path="url(#clip0_526_13022)">
<path d="M6.97439 23.0678L6.63501 22.8499C6.62595 22.8825 6.61736 22.915 6.60533 22.9475L6.55376 23.0877C6.45954 23.3433 6.28814 23.5474 6.07626 23.6858L6.61908 24.0344L6.97439 23.0678Z" fill="#2266D3"/>
<path d="M4.98798 23.8108L3.78329 23.3673C3.25813 23.174 2.93188 22.6479 2.9922 22.0915L3.0272 21.7677C3.07079 21.3652 3.43282 21.0746 3.83516 21.1191L5.59501 21.3138C6.38235 21.401 6.87907 22.204 6.60532 22.9474L6.55376 23.0876C6.32126 23.7199 5.62016 24.0437 4.98798 23.8108Z" fill="#377DE2"/>
<path d="M33.3798 24.0344L33.9227 23.6858C33.7108 23.5475 33.5394 23.3434 33.4452 23.0877L33.3936 22.9475C33.3817 22.915 33.373 22.8824 33.3639 22.8499L33.0245 23.0678L33.3798 24.0344Z" fill="#2266D3"/>
<path d="M35.0111 23.8108L36.2158 23.3673C36.7409 23.174 37.0672 22.6479 37.0069 22.0915L36.9719 21.7677C36.9283 21.3652 36.5663 21.0746 36.1639 21.1191L34.4041 21.3138C33.6167 21.401 33.12 22.204 33.3938 22.9474L33.4453 23.0876C33.6778 23.7199 34.3789 24.0437 35.0111 23.8108Z" fill="#377DE2"/>
<path d="M7.22781 37.4701C6.35984 37.4701 5.58062 37.0986 5.03391 36.5084V39.134C5.03391 39.742 5.52672 40.2348 6.13469 40.2348H9.43703C10.045 40.2348 10.5378 39.742 10.5378 39.134V37.4701H7.22781Z" fill="#414042"/>
<path d="M32.7714 37.4699H29.4612V39.1341C29.4612 39.7421 29.9541 40.2349 30.562 40.2349H33.8644C34.4723 40.2349 34.9652 39.7421 34.9652 39.1341V36.5082C34.4184 37.0982 33.6392 37.4699 32.7714 37.4699Z" fill="#414042"/>
<path d="M7.22781 37.4703L32.7712 37.4699C34.4244 37.4699 35.7645 36.1298 35.7645 34.4765V29.0382C35.7645 28.2593 35.5366 27.4974 35.1088 26.8463L33.53 24.4438H6.46891L4.89016 26.8463C4.46234 27.4973 4.23453 28.2592 4.23438 29.0382V34.4768C4.23438 36.1299 5.57453 37.4703 7.22781 37.4703Z" fill="#377DE2"/>
<path d="M35.7647 29.0382C35.7647 28.2593 35.5367 27.4974 35.1091 26.8463L33.5303 24.4438H33.1881L34.1113 25.8485C34.5391 26.4995 34.767 27.2613 34.767 28.0404V33.4787C34.767 35.1318 33.4269 36.4721 31.7738 36.4721L6.23016 36.4724C5.65954 36.4724 5.12813 36.3099 4.67422 36.0328C5.20001 36.8937 6.14548 37.4703 7.22798 37.4703L32.7716 37.4699C34.4247 37.4699 35.7649 36.1298 35.7649 34.4765L35.7647 29.0382Z" fill="#2266D3"/>
<path d="M24.386 33.0951H15.6131C15.16 33.0951 14.7639 32.7898 14.6483 32.3517L14.1767 30.5632C14.0099 29.9304 14.4871 29.311 15.1416 29.311H24.8577C25.5121 29.311 25.9894 29.9304 25.8225 30.5632L25.351 32.3517C25.2353 32.7898 24.8391 33.0951 24.386 33.0951Z" fill="#414042"/>
<path d="M33.1905 25.6161L32.6467 24.6474C32.5761 24.5216 32.443 24.4436 32.2987 24.4436H7.70031C7.55594 24.4436 7.42297 24.5216 7.35234 24.6474L6.80859 25.6161C6.50609 26.155 6.76109 26.8364 7.34312 27.0442L11.4922 28.5261C11.7077 28.603 11.9347 28.6424 12.1634 28.6424H27.8359C28.0647 28.6424 28.2917 28.603 28.5072 28.5261L32.6562 27.0442C33.238 26.8364 33.493 26.155 33.1905 25.6161Z" fill="#2266D3"/>
<path d="M28.1186 30.1453C28.9052 29.3688 30.7006 28.1283 34.1797 28.0672C34.3478 28.0642 34.5006 28.1699 34.5597 28.3274C34.7778 28.91 35.1311 30.2894 33.7744 30.6663C32.4884 31.0235 29.7191 30.9039 28.3733 30.8183C28.0336 30.7966 27.8764 30.3845 28.1186 30.1453Z" fill="white"/>
<path d="M34.5597 28.3274C34.5006 28.1699 34.348 28.0642 34.1797 28.0672C34.0642 28.0692 33.9556 28.0758 33.8439 28.0805C33.95 28.7188 33.8589 29.5058 32.8844 29.7764C31.8225 30.0714 29.7508 30.0411 28.3028 29.9735C28.2367 30.0325 28.1744 30.0903 28.1188 30.1453C27.8766 30.3844 28.0336 30.7966 28.3733 30.8183C29.7191 30.9039 32.4884 31.0236 33.7744 30.6663C35.1311 30.2894 34.7778 28.91 34.5597 28.3274Z" fill="#F1F2F2"/>
<path d="M11.8805 30.1453C11.0939 29.3688 9.2986 28.1283 5.81938 28.0672C5.65125 28.0642 5.49844 28.1699 5.43938 28.3274C5.22125 28.91 4.86797 30.2894 6.22469 30.6663C7.51063 31.0235 10.28 30.9039 11.6258 30.8183C11.9655 30.7966 12.1227 30.3845 11.8805 30.1453Z" fill="white"/>
<path d="M11.8805 30.1453C11.6864 29.9538 11.4303 29.7338 11.1033 29.5105C11.1142 29.7122 10.9706 29.9135 10.7361 29.9283C9.39032 30.0139 6.62095 30.1336 5.33501 29.7763C5.31298 29.7702 5.29532 29.7617 5.27423 29.755C5.36954 30.1496 5.63564 30.5025 6.22501 30.6661C7.51095 31.0233 10.2803 30.9038 11.6261 30.8182C11.9655 30.7966 12.1227 30.3846 11.8805 30.1453Z" fill="#F1F2F2"/>
<path d="M27.4544 15.3274H12.5447C10.9069 15.3274 9.44297 16.3491 8.87812 17.8865L6.4689 24.4438H33.5302L31.1209 17.8865C30.5561 16.3491 29.0922 15.3274 27.4544 15.3274Z" fill="#377DE2"/>
<path d="M7.95893 22.8418L9.79768 17.9221C10.026 17.3115 10.6094 16.9066 11.2613 16.9066H28.738C29.3899 16.9066 29.9733 17.3115 30.2016 17.9221L32.0403 22.8416C32.1167 23.0458 31.9656 23.2635 31.7477 23.2635H8.25158C8.03361 23.2636 7.88252 23.046 7.95893 22.8418Z" fill="#F1F2F2"/>
<path d="M16.9917 18.1566H16.8355C16.663 18.1566 16.523 18.0166 16.523 17.8441C16.523 17.6716 16.663 17.5316 16.8355 17.5316H16.9917C17.1642 17.5316 17.3042 17.6716 17.3042 17.8441C17.3042 18.0166 17.1642 18.1566 16.9917 18.1566ZM15.5855 18.1566H11.0542C10.8817 18.1566 10.7417 18.0166 10.7417 17.8441C10.7417 17.6716 10.8817 17.5316 11.0542 17.5316H15.5855C15.758 17.5316 15.898 17.6716 15.898 17.8441C15.898 18.0166 15.758 18.1566 15.5855 18.1566Z" fill="white"/>
<path d="M32.0402 22.8418L30.2014 17.9222C29.9858 17.3452 29.453 16.9525 28.8449 16.9108L30.4775 21.2793C30.5539 21.4835 30.4028 21.7011 30.1849 21.7011H8.38518L7.95893 22.8418C7.88252 23.046 8.03361 23.2636 8.25158 23.2636H31.7475C31.9655 23.2636 32.1166 23.046 32.0402 22.8418Z" fill="#E6E7E8"/>
<path d="M32.0401 22.8418L30.2014 17.9222C30.0525 17.524 29.752 17.2141 29.3805 17.0461C29.3945 17.0772 29.4081 17.1086 29.4202 17.141L31.2589 22.0605C31.3353 22.2647 31.1842 22.4824 30.9662 22.4824H8.09312L7.95874 22.8418C7.88234 23.046 8.03343 23.2636 8.2514 23.2636H31.7473C31.9655 23.2636 32.1166 23.046 32.0401 22.8418Z" fill="#D1D3D4"/>
<path d="M29.7083 35.8723H10.2908C9.95313 35.8723 9.76813 35.4792 9.98313 35.2191L10.5409 34.5437C10.7305 34.3144 11.0125 34.1814 11.3102 34.1814H28.6889C28.9866 34.1814 29.2686 34.3142 29.4581 34.5437L30.0159 35.2191C30.2309 35.4792 30.0459 35.8723 29.7083 35.8723Z" fill="#414042"/>
<path d="M32.2536 36.1837C32.8925 36.1837 33.4105 35.6658 33.4105 35.0269C33.4105 34.3879 32.8925 33.87 32.2536 33.87C31.6147 33.87 31.0967 34.3879 31.0967 35.0269C31.0967 35.6658 31.6147 36.1837 32.2536 36.1837Z" fill="#D1D3D4"/>
<path d="M32.2536 35.7311C32.6425 35.7311 32.9578 35.4158 32.9578 35.0269C32.9578 34.6379 32.6425 34.3226 32.2536 34.3226C31.8647 34.3226 31.5494 34.6379 31.5494 35.0269C31.5494 35.4158 31.8647 35.7311 32.2536 35.7311Z" fill="white"/>
<path d="M7.74547 36.1837C8.38439 36.1837 8.90234 35.6658 8.90234 35.0269C8.90234 34.3879 8.38439 33.87 7.74547 33.87C7.10654 33.87 6.58859 34.3879 6.58859 35.0269C6.58859 35.6658 7.10654 36.1837 7.74547 36.1837Z" fill="#D1D3D4"/>
<path d="M7.74548 35.7311C8.13441 35.7311 8.4497 35.4158 8.4497 35.0269C8.4497 34.6379 8.13441 34.3226 7.74548 34.3226C7.35655 34.3226 7.04126 34.6379 7.04126 35.0269C7.04126 35.4158 7.35655 35.7311 7.74548 35.7311Z" fill="white"/>
<path d="M17.9687 15H22.0312V37.7048H17.9687V15Z" fill="#CF3338"/>
<path d="M21.2499 15V36.1026C21.2499 36.545 20.9001 36.9037 20.4687 36.9037H17.9687V37.7048H22.0312V15H21.2499Z" fill="#A62A2E"/>
<path d="M16.2881 10.9384L11.1059 8.21086C9.89952 7.57609 8.45038 8.45092 8.45038 9.81423V16.6768C8.45038 18.0401 9.89952 18.9149 11.1059 18.2799L17.056 15.1484L16.2414 11.5956C16.1886 11.3657 16.2106 11.1395 16.2881 10.9384Z" fill="#CF3338"/>
<path d="M9.19205 15.7351C8.76245 15.8144 8.45038 16.1892 8.45038 16.626V16.7447C8.45038 18.0772 9.86668 18.9321 11.0457 18.3116L17.056 15.1484L16.8664 14.3215L9.19205 15.7351Z" fill="#A62A2E"/>
<path d="M28.8941 8.21086L23.712 10.9382C23.7894 11.1393 23.8114 11.3655 23.7586 11.5954L22.944 15.1484L28.8941 18.2799C30.1005 18.9149 31.5497 18.0401 31.5497 16.6768V9.81423C31.5497 8.45092 30.1005 7.57609 28.8941 8.21086Z" fill="#CF3338"/>
<path d="M30.808 15.7351L23.1338 14.3215L22.944 15.1484L28.9544 18.3116C30.1336 18.9321 31.5497 18.0772 31.5497 16.7447V16.626C31.5497 16.1892 31.2376 15.8144 30.808 15.7351Z" fill="#A62A2E"/>
<path d="M22.6551 10.2103H17.3453C16.6176 10.2103 16.0789 10.8865 16.2415 11.5958L17.0561 15.1484H22.9441L23.7587 11.5956C23.9213 10.8865 23.3825 10.2103 22.6551 10.2103Z" fill="#F79219"/>
<path d="M4.72572 8.23208L4.89556 9.02302C5.074 9.85411 5.72322 10.5032 6.55416 10.6816L7.3451 10.8515C7.53572 10.8924 7.53572 11.1646 7.3451 11.2055L6.55416 11.3754C5.72306 11.5538 5.074 12.203 4.89556 13.034L4.72572 13.8249C4.68478 14.0155 4.4126 14.0155 4.37166 13.8249L4.20181 13.034C4.02338 12.2029 3.37416 11.5538 2.54322 11.3754L1.75228 11.2055C1.56166 11.1646 1.56166 10.8924 1.75228 10.8515L2.54322 10.6816C3.37431 10.5032 4.02338 9.85396 4.20181 9.02302L4.37166 8.23208C4.4126 8.04146 4.68478 8.04146 4.72572 8.23208Z" fill="#FFD41F"/>
<path d="M11.1348 4.10676L11.2616 4.69707C11.3947 5.31723 11.8792 5.8016 12.4994 5.93488L13.0897 6.0616C13.232 6.09223 13.232 6.2952 13.0897 6.32582L12.4994 6.45254C11.8792 6.58566 11.3948 7.0702 11.2616 7.69035L11.1348 8.28066C11.1042 8.42301 10.9012 8.42301 10.8706 8.28066L10.7439 7.69035C10.6108 7.0702 10.1262 6.58582 9.50609 6.45254L8.91578 6.32582C8.77344 6.2952 8.77344 6.09223 8.91578 6.0616L9.50609 5.93488C10.1262 5.80176 10.6106 5.31723 10.7439 4.69707L10.8706 4.10676C10.9012 3.96441 11.1044 3.96441 11.1348 4.10676Z" fill="#FFD41F"/>
<path d="M33.0933 4.53352L33.2201 5.12383C33.3532 5.74398 33.8377 6.22836 34.4579 6.36164L35.0482 6.48836C35.1905 6.51898 35.1905 6.72195 35.0482 6.75258L34.4579 6.8793C33.8377 7.01242 33.3533 7.49695 33.2201 8.11711L33.0933 8.70742C33.0627 8.84977 32.8597 8.84977 32.8291 8.70742L32.7024 8.11711C32.5693 7.49695 32.0847 7.01258 31.4646 6.8793L30.8743 6.75258C30.7319 6.72195 30.7319 6.51898 30.8743 6.48836L31.4646 6.36164C32.0847 6.22852 32.5691 5.74398 32.7024 5.12383L32.8291 4.53352C32.8597 4.39117 33.0627 4.39117 33.0933 4.53352Z" fill="#FFD41F"/>
<path d="M35.1298 10.7689L35.1961 11.0772C35.2656 11.4011 35.5187 11.6542 35.8426 11.7238L36.1509 11.79C36.2253 11.8059 36.2253 11.912 36.1509 11.928L35.8426 11.9942C35.5187 12.0638 35.2656 12.3169 35.1961 12.6408L35.1298 12.9491C35.1139 13.0234 35.0078 13.0234 34.9919 12.9491L34.9256 12.6408C34.8561 12.3169 34.6029 12.0638 34.279 11.9942L33.9708 11.928C33.8964 11.912 33.8964 11.8059 33.9708 11.79L34.279 11.7238C34.6029 11.6542 34.8561 11.4011 34.9256 11.0772L34.9919 10.7689C35.0078 10.6945 35.1139 10.6945 35.1298 10.7689Z" fill="#FFD41F"/>
<path d="M20.3421 5.89501L20.4328 6.31704C20.5279 6.76048 20.8745 7.10688 21.3179 7.2022L21.74 7.29282C21.8417 7.3147 21.8417 7.45985 21.74 7.48173L21.3179 7.57235C20.8745 7.66751 20.5281 8.01407 20.4328 8.45751L20.3421 8.87954C20.3203 8.98126 20.1751 8.98126 20.1532 8.87954L20.0626 8.45751C19.9675 8.01407 19.6209 7.66767 19.1775 7.57235L18.7554 7.48173C18.6537 7.45985 18.6537 7.3147 18.7554 7.29282L19.1775 7.2022C19.6209 7.10704 19.9673 6.76048 20.0626 6.31704L20.1532 5.89501C20.1751 5.79313 20.3203 5.79313 20.3421 5.89501Z" fill="#FFD41F"/>
</g>
<defs>
<clipPath id="clip0_526_13022">
<rect width="40" height="40" fill="white"/>
</clipPath>
</defs>
</svg>
