<svg width="32" height="32" viewBox="0 0 32 32" fill="none" xmlns="http://www.w3.org/2000/svg">
<path d="M0.60088 6.55952C1.08083 5.35964 1.88075 4.31974 2.84065 3.51983C3.96054 2.63991 5.48039 1.68001 6.92024 2.31995C7.3202 2.47993 7.64017 2.7999 7.88014 3.11987C8.04013 3.35984 8.20011 3.59982 8.2801 3.91979C8.2801 3.99978 9.24001 6.95948 9.55997 8.39933C9.79995 9.35923 9.63996 9.99917 9.00003 10.5591C8.84004 10.7191 8.60007 10.8791 8.2801 11.0391C7.64017 11.359 6.92024 11.679 6.20031 11.919C6.12032 11.919 6.04033 11.999 5.88035 11.999L5.08043 12.3189L5.40039 13.1988C7.16022 17.5984 9.63996 21.518 13.0796 24.7977L13.6396 25.4376L14.3595 24.7977C14.9194 24.2377 15.3994 23.5978 16.0393 23.1178C17.0792 22.2379 17.9591 22.2379 19.079 23.0378C20.3589 23.9977 21.6387 25.0376 22.7586 26.1575C24.0385 27.4374 23.9585 28.6373 22.6786 29.9172C21.6387 31.037 20.2789 31.677 18.759 31.917C16.8392 32.2369 14.5995 31.597 12.9196 30.6371C11.4798 29.7572 10.1199 28.7973 8.92004 27.7574L7.24021 26.1575C4.20052 22.9579 2.12073 19.0383 0.760864 14.5587C0.0409368 11.999 -0.439015 9.03927 0.60088 6.55952Z" fill="url(#paint0_linear_650_1174)"/>
<path d="M14.6794 14.4785C12.6796 12.8787 11.4797 10.7189 11.4797 8.31916C11.4797 6.07938 12.5196 3.99959 14.4394 2.39976C16.2793 0.799919 18.759 0 21.3987 0C24.0385 0 26.5182 0.879911 28.358 2.39976C30.2778 3.99959 31.3177 6.07938 31.3177 8.31916C31.3177 10.5589 30.2778 12.6387 28.358 14.2386C26.5182 15.8384 24.0385 16.6383 21.3987 16.6383C20.7588 16.6383 20.1189 16.5583 19.4789 16.4783C18.999 16.7983 17.3191 17.9182 14.6794 18.3181C14.5994 18.3181 14.5994 18.3181 14.5194 18.3181C14.1995 18.3181 13.9595 18.1582 13.7195 17.9182C13.4795 17.5982 13.3995 17.1983 13.5595 16.7983L14.6794 14.4785Z" fill="url(#paint1_linear_650_1174)"/>
<path d="M24.1985 9.43878C23.9585 9.35879 23.7185 9.51877 23.6386 9.75874C23.6386 9.75874 23.5586 9.99872 23.3186 10.2387C22.9986 10.5587 22.5187 10.7186 21.9587 10.7186C20.5989 10.7186 20.2789 9.75874 20.2789 9.75874C20.1989 9.51877 19.9589 9.35879 19.7189 9.43878C19.479 9.51877 19.319 9.75874 19.399 9.99872C19.399 10.0787 19.9589 11.5986 21.9587 11.5986C23.9585 11.5986 24.5185 10.0787 24.5185 9.99872C24.5185 9.83874 24.4385 9.51877 24.1985 9.43878Z" fill="#464649"/>
<path d="M17.1592 6.47949C16.5992 6.47949 16.1193 6.95944 16.1193 7.51939C16.1193 8.07933 16.5992 8.55928 17.1592 8.55928C17.7191 8.55928 18.1991 8.07933 18.1991 7.51939C18.1991 6.95944 17.7191 6.47949 17.1592 6.47949Z" fill="#464649"/>
<path d="M26.6782 6.47949C26.1183 6.47949 25.6383 6.95944 25.6383 7.51939C25.6383 8.07933 26.1183 8.55928 26.6782 8.55928C27.2381 8.55928 27.7181 8.07933 27.7181 7.51939C27.7181 6.95944 27.2381 6.47949 26.6782 6.47949Z" fill="#464649"/>
<path d="M24.3585 16.3182C23.3986 16.5582 22.4387 16.7182 21.3988 16.7182C20.8389 16.7182 20.2789 16.7182 19.719 16.5582C19.639 16.5582 19.559 16.5582 19.479 16.5582C18.5991 16.3182 17.8792 15.5983 17.8792 14.5584C17.8792 13.4385 18.7591 12.5586 19.8789 12.5586C20.5989 12.5586 21.1588 12.8786 21.5588 13.4385C21.5588 13.5185 21.6388 13.5185 21.6388 13.5985C22.3587 14.7184 23.2386 15.6783 24.3585 16.3182Z" fill="#FFAF12"/>
<path opacity="0.2" d="M24.2785 2.39976C24.2785 3.75962 23.2386 4.79951 21.8788 4.79951C21.6388 4.79951 21.3188 4.71952 21.0789 4.63953C20.1189 4.31956 19.159 4.07959 18.1191 4.07959C15.4794 4.07959 13.1597 5.27947 11.5598 7.19927C11.8798 5.35946 12.8397 3.67963 14.4395 2.39976C16.2793 0.799919 18.7591 0 21.3988 0C21.4788 0 21.6388 0 21.7188 0C21.8788 0 22.0388 0 22.1987 0C22.1987 0 22.2787 0 22.3587 0C23.4786 0.239976 24.2785 1.19988 24.2785 2.39976Z" fill="white"/>
<defs>
<linearGradient id="paint0_linear_650_1174" x1="6.68028" y1="1.97189" x2="22.233" y2="30.7142" gradientUnits="userSpaceOnUse">
<stop stop-color="#04BAEE"/>
<stop offset="1" stop-color="#0080BD"/>
</linearGradient>
<linearGradient id="paint1_linear_650_1174" x1="21.3987" y1="0" x2="21.3987" y2="18.3181" gradientUnits="userSpaceOnUse">
<stop offset="0.323791" stop-color="#FFD41F"/>
<stop offset="1" stop-color="#FFB118"/>
</linearGradient>
</defs>
</svg>
