<svg width="24" height="24" viewBox="0 0 24 24" fill="none" xmlns="http://www.w3.org/2000/svg">
<g clip-path="url(#clip0_167_7858)">
<path d="M15.3062 4.0874C15.4902 3.90338 15.7398 3.8 16 3.8C16.2602 3.8 16.5098 3.90338 16.6938 4.0874C16.8779 4.27142 16.9813 4.52101 16.9813 4.78125V19.2188C16.9813 19.479 16.8779 19.7286 16.6938 19.9126C16.5098 20.0966 16.2602 20.2 16 20.2C15.7398 20.2 15.4902 20.0966 15.3062 19.9126C15.1221 19.7286 15.0187 19.479 15.0187 19.2188V4.78125C15.0187 4.52101 15.1221 4.27142 15.3062 4.0874Z" fill="#2B496B" stroke="#2B496B" stroke-width="0.4"/>
<path d="M8.78125 11.0187H23.2188C23.479 11.0187 23.7286 11.1221 23.9126 11.3062C24.0966 11.4902 24.2 11.7398 24.2 12C24.2 12.2602 24.0966 12.5098 23.9126 12.6938C23.7286 12.8779 23.479 12.9813 23.2188 12.9813H8.78125C8.52101 12.9813 8.27142 12.8779 8.0874 12.6938C7.90338 12.5098 7.8 12.2602 7.8 12C7.8 11.7398 7.90338 11.4902 8.0874 11.3062C8.27142 11.1221 8.52101 11.0187 8.78125 11.0187Z" fill="#2B496B" stroke="#2B496B" stroke-width="0.4"/>
</g>
<defs>
<clipPath id="clip0_167_7858">
<rect width="24" height="24" fill="white" transform="matrix(1 0 0 -1 0 24)"/>
</clipPath>
</defs>
</svg>
