<svg width="24" height="24" viewBox="0 0 24 24" fill="none" xmlns="http://www.w3.org/2000/svg">
<g clip-path="url(#clip0_526_12622)">
<path fill-rule="evenodd" clip-rule="evenodd" d="M10.45 7.53378C10.45 7.24639 10.5642 6.97078 10.7674 6.76756C10.9706 6.56435 11.2462 6.45018 11.5336 6.45018C11.821 6.45018 12.0966 6.56435 12.2998 6.76756L16 10.4677L19.7002 6.76756C19.9034 6.56435 20.179 6.45018 20.4664 6.45018C20.7538 6.45018 21.0294 6.56435 21.2326 6.76756C21.4358 6.97078 21.55 7.24639 21.55 7.53378C21.55 7.82117 21.4358 8.09678 21.2326 8.29999L17.5324 12.0002L21.2326 15.7003C21.4358 15.9035 21.55 16.1791 21.55 16.4665C21.55 16.7539 21.4358 17.0295 21.2326 17.2327C21.0294 17.436 20.7538 17.5501 20.4664 17.5501C20.179 17.5501 19.9034 17.436 19.7002 17.2327L16 13.5326L12.2998 17.2327C12.0966 17.436 11.821 17.5501 11.5336 17.5501C11.2462 17.5501 10.9706 17.436 10.7674 17.2327C10.5642 17.0295 10.45 16.7539 10.45 16.4665C10.45 16.1791 10.5642 15.9035 10.7674 15.7003L14.4676 12.0002L10.7674 8.29999C10.5642 8.09678 10.45 7.82117 10.45 7.53378ZM20.1584 6.92349C20.253 6.87574 20.3584 6.85018 20.4664 6.85018C20.6477 6.85018 20.8215 6.92221 20.9497 7.0504C21.0779 7.1786 21.15 7.35248 21.15 7.53378C21.15 7.71508 21.0779 7.88895 20.9497 8.01715L17.2496 11.7173L17.2496 11.7173L20.9497 8.0172C21.0779 7.88901 21.1499 7.71513 21.1499 7.53383C21.1499 7.35253 21.0779 7.17865 20.9497 7.05046C20.8215 6.92226 20.6476 6.85024 20.4663 6.85024C20.3583 6.85024 20.253 6.87577 20.1584 6.92349ZM17.2496 12.283L20.9497 15.9832C21.0779 16.1114 21.15 16.2852 21.15 16.4665C21.15 16.6478 21.0779 16.8217 20.9497 16.9499C20.9214 16.9783 20.8908 17.0039 20.8584 17.0266C20.8908 17.0039 20.9213 16.9783 20.9497 16.95C21.0779 16.8218 21.1499 16.6479 21.1499 16.4666C21.1499 16.2853 21.0779 16.1114 20.9497 15.9832L17.2495 12.2831L17.2496 12.283ZM15.7172 13.2497L12.017 16.9499C11.9774 16.9895 11.9335 17.0237 11.8863 17.0521C11.9335 17.0237 11.9774 16.9895 12.0169 16.95L15.7171 13.2497L15.7172 13.2497ZM16.9667 12.0002L16.9667 12.0002L16.9667 12.0001L16.9667 12.0002L16.9667 12.0002ZM15.7171 10.7506L15.7172 10.7506L12.017 7.05041C11.8888 6.92221 11.7149 6.85018 11.5336 6.85018C11.449 6.85018 11.366 6.86588 11.2884 6.89567C11.3659 6.86591 11.4489 6.85024 11.5335 6.85024C11.7148 6.85024 11.8887 6.92226 12.0169 7.05046L15.7171 10.7506Z" fill="#0B7199"/>
</g>
<defs>
<clipPath id="clip0_526_12622">
<rect width="24" height="24" fill="white" transform="matrix(1 0 0 -1 0 24)"/>
</clipPath>
</defs>
</svg>
